<svg width="32.000000" height="32.000000" viewBox="0 0 32 32" fill="none" xmlns="http://www.w3.org/2000/svg" xmlns:xlink="http://www.w3.org/1999/xlink">
	<desc>
			Created with Pixso.
	</desc>
	<defs>
		<clipPath id="clip78_135">
			<rect rx="0.000000" width="31.000000" height="31.000000" transform="translate(0.500000 0.500000)" fill="white" fill-opacity="0"/>
		</clipPath>
	</defs>
	<rect rx="0.000000" width="31.000000" height="31.000000" transform="translate(0.500000 0.500000)" fill="#FFFFFF" fill-opacity="0"/>
	<g clip-path="url(#clip78_135)">
		<path d="M13.82 21C12.38 21 11.21 19.88 11.21 18.5C11.21 17.11 12.38 16 13.82 16C15.26 16 16.43 17.11 16.43 18.5C16.43 19.88 15.26 21 13.82 21ZM6 21C6 21 6 14.9 6 11M11.21 18.5L11.21 13.5C11.21 12.83 11.49 12.2 11.98 11.73C12.47 11.26 13.13 11 13.82 11L15.56 11M20.78 16L23.39 16L26 16M23.39 13.5L23.39 16M23.39 16L23.39 18.5" stroke="#FFFFFF" stroke-opacity="1.000000" stroke-width="2.000000" stroke-linejoin="round" stroke-linecap="round"/>
	</g>
</svg>
