<svg width="1920.000000" height="23.000000" viewBox="0 0 1920 23" fill="none" xmlns="http://www.w3.org/2000/svg" xmlns:xlink="http://www.w3.org/1999/xlink">
	<desc>
			Created with Pixso.
	</desc>
	<defs>
		<clipPath id="clip10_152">
			<rect id="фрейм 1" width="1920.000000" height="23.000000" fill="white" fill-opacity="0"/>
		</clipPath>
	</defs>
	<g clip-path="url(#clip10_152)">
		<path id="Subtract" d="M10.0021 -71L1910 -71C1915.52 -71 1920 -66.5229 1920 -61L1920 24C1919.48 10.6565 1908.47 0 1895 0L1636.52 0C1631.46 0 1627.3 -3.83118 1625.81 -8.67239C1619.54 -29.1269 1600.51 -44 1578 -44L551 -44C528.491 -44 509.457 -29.1269 503.187 -8.67236C501.703 -3.83112 497.544 0 492.481 0L25 0C11.5278 0 0.544538 10.6565 0.0196342 24L0.00206661 -60.9979C0.00206661 -66.5216 4.47841 -71 10.0021 -71Z" clip-rule="evenodd" fill="#7027E2" fill-opacity="1.000000" fill-rule="evenodd"/>
		<rect id="Logo" rx="0.000000" width="399.000000" height="29.630630" transform="translate(45.500000 -50.500000)" fill="#FFFFFF" fill-opacity="0"/>
		<path id="Vector" d="M89.16 -50.38L89.16 -21L81.22 -21L81.22 -47.48L82.99 -47.28L71.31 -21L62.85 -21L51.12 -47.21L52.93 -47.4L52.93 -21L45 -21L45 -50.38L57.89 -50.38L68.73 -25.15L65.51 -25.15L76.26 -50.38L89.16 -50.38ZM102.75 -34.12C102.75 -32.79 103.01 -31.63 103.52 -30.64C104.06 -29.67 104.84 -28.93 105.86 -28.4C106.9 -27.88 108.18 -27.62 109.68 -27.62C111.22 -27.62 112.49 -27.88 113.51 -28.4C114.53 -28.93 115.3 -29.67 115.81 -30.64C116.32 -31.63 116.57 -32.79 116.57 -34.12L116.57 -50.38L124.96 -50.38L124.96 -33.73C124.96 -31.04 124.31 -28.69 123.02 -26.68C121.76 -24.7 119.99 -23.14 117.7 -22.02C115.42 -20.92 112.75 -20.37 109.68 -20.37C106.65 -20.37 103.98 -20.92 101.66 -22.02C99.38 -23.14 97.59 -24.7 96.31 -26.68C95.04 -28.69 94.41 -31.04 94.41 -33.73L94.41 -50.38L102.75 -50.38L102.75 -34.12ZM128.82 -30.64L137.32 -30.64C137.46 -29.83 137.85 -29.12 138.49 -28.52C139.14 -27.92 140 -27.45 141.07 -27.11C142.17 -26.8 143.46 -26.64 144.94 -26.64C146.98 -26.64 148.59 -26.89 149.78 -27.39C150.96 -27.91 151.55 -28.67 151.55 -29.66C151.55 -30.41 151.21 -31 150.54 -31.42C149.87 -31.84 148.58 -32.14 146.67 -32.32L141.03 -32.83C136.87 -33.2 133.85 -34.11 131.97 -35.57C130.08 -37.06 129.14 -39.06 129.14 -41.57C129.14 -43.6 129.75 -45.33 130.96 -46.74C132.19 -48.15 133.91 -49.2 136.12 -49.91C138.34 -50.64 140.94 -51 143.89 -51C146.79 -51 149.37 -50.6 151.63 -49.79C153.89 -49.01 155.67 -47.88 156.99 -46.42C158.33 -44.96 159.06 -43.26 159.17 -41.33L150.7 -41.33C150.59 -42.04 150.25 -42.64 149.66 -43.13C149.09 -43.65 148.31 -44.05 147.32 -44.31C146.32 -44.59 145.13 -44.74 143.73 -44.74C141.85 -44.74 140.36 -44.49 139.26 -43.99C138.16 -43.52 137.61 -42.82 137.61 -41.88C137.61 -41.2 137.93 -40.65 138.57 -40.23C139.25 -39.82 140.44 -39.53 142.16 -39.37L148.16 -38.78C151.04 -38.52 153.34 -38.07 155.05 -37.41C156.77 -36.79 158.02 -35.91 158.8 -34.79C159.58 -33.67 159.97 -32.27 159.97 -30.6C159.97 -28.53 159.34 -26.73 158.08 -25.19C156.81 -23.68 155.04 -22.49 152.76 -21.63C150.47 -20.79 147.81 -20.37 144.78 -20.37C141.66 -20.37 138.91 -20.79 136.52 -21.63C134.15 -22.49 132.3 -23.69 130.96 -25.23C129.61 -26.8 128.9 -28.6 128.82 -30.64ZM164.15 -50.38L172.49 -50.38L172.49 -21L164.15 -21L164.15 -50.38ZM211.69 -33.3C211.39 -30.72 210.48 -28.44 208.95 -26.48C207.42 -24.55 205.4 -23.05 202.9 -21.98C200.43 -20.91 197.59 -20.37 194.36 -20.37C190.84 -20.37 187.77 -21.01 185.13 -22.29C182.5 -23.57 180.45 -25.36 178.97 -27.66C177.52 -29.96 176.79 -32.63 176.79 -35.69C176.79 -38.74 177.52 -41.42 178.97 -43.72C180.45 -46.02 182.5 -47.81 185.13 -49.09C187.77 -50.37 190.84 -51 194.36 -51C197.59 -51 200.43 -50.47 202.9 -49.4C205.4 -48.33 207.42 -46.81 208.95 -44.86C210.48 -42.92 211.39 -40.66 211.69 -38.08L203.31 -38.08C203.04 -39.33 202.52 -40.39 201.74 -41.25C200.96 -42.14 199.94 -42.82 198.67 -43.29C197.44 -43.76 196 -43.99 194.36 -43.99C192.48 -43.99 190.86 -43.65 189.49 -42.98C188.12 -42.32 187.07 -41.37 186.34 -40.12C185.62 -38.89 185.25 -37.41 185.25 -35.69C185.25 -33.97 185.62 -32.48 186.34 -31.22C187.07 -30 188.12 -29.04 189.49 -28.36C190.86 -27.71 192.48 -27.39 194.36 -27.39C196 -27.39 197.44 -27.61 198.67 -28.05C199.94 -28.5 200.96 -29.16 201.74 -30.05C202.52 -30.94 203.04 -32.02 203.31 -33.3L211.69 -33.3ZM257.73 -50.38L257.73 -21L249.39 -21L249.39 -46.85L253.14 -43.17L230.33 -43.17L234.08 -46.85L234.08 -21L225.74 -21L225.74 -50.38L257.73 -50.38ZM280.32 -50.38C282.85 -50.38 285.02 -49.96 286.85 -49.12C288.7 -48.29 290.11 -47.1 291.08 -45.56C292.05 -44.05 292.53 -42.27 292.53 -40.23C292.53 -38.22 292.05 -36.45 291.08 -34.91C290.11 -33.39 288.7 -32.22 286.85 -31.38C285.02 -30.55 282.85 -30.13 280.32 -30.13L267.23 -30.13L267.23 -36.63L279.8 -36.63C281.14 -36.63 282.19 -36.94 282.94 -37.57C283.69 -38.22 284.07 -39.11 284.07 -40.23C284.07 -41.38 283.69 -42.27 282.94 -42.9C282.19 -43.55 281.14 -43.88 279.8 -43.88L267.95 -43.88L271.7 -47.64L271.7 -21L263.36 -21L263.36 -50.38L280.32 -50.38ZM312.78 -20.37C309.21 -20.37 306.06 -21.01 303.35 -22.29C300.66 -23.57 298.57 -25.36 297.06 -27.66C295.59 -29.96 294.85 -32.63 294.85 -35.69C294.85 -38.74 295.59 -41.42 297.06 -43.72C298.57 -46.02 300.66 -47.81 303.35 -49.09C306.06 -50.37 309.21 -51 312.78 -51C316.38 -51 319.52 -50.37 322.21 -49.09C324.9 -47.81 326.99 -46.02 328.5 -43.72C330 -41.42 330.75 -38.74 330.75 -35.69C330.75 -32.63 330 -29.96 328.5 -27.66C326.99 -25.36 324.9 -23.57 322.21 -22.29C319.52 -21.01 316.38 -20.37 312.78 -20.37ZM312.78 -27.62C314.74 -27.62 316.43 -27.95 317.86 -28.6C319.28 -29.25 320.37 -30.18 321.12 -31.38C321.9 -32.58 322.29 -34.02 322.29 -35.69C322.29 -37.36 321.9 -38.8 321.12 -40C320.37 -41.2 319.28 -42.13 317.86 -42.78C316.43 -43.43 314.74 -43.76 312.78 -43.76C310.85 -43.76 309.17 -43.43 307.74 -42.78C306.32 -42.13 305.22 -41.2 304.44 -40C303.66 -38.8 303.27 -37.36 303.27 -35.69C303.27 -34.02 303.66 -32.58 304.44 -31.38C305.22 -30.18 306.32 -29.25 307.74 -28.6C309.17 -27.95 310.85 -27.62 312.78 -27.62ZM352.02 -50.38C354.55 -50.38 356.72 -49.96 358.55 -49.12C360.4 -48.29 361.81 -47.1 362.78 -45.56C363.75 -44.05 364.23 -42.27 364.23 -40.23C364.23 -38.22 363.75 -36.45 362.78 -34.91C361.81 -33.39 360.4 -32.22 358.55 -31.38C356.72 -30.55 354.55 -30.13 352.02 -30.13L338.93 -30.13L338.93 -36.63L351.5 -36.63C352.84 -36.63 353.89 -36.94 354.64 -37.57C355.39 -38.22 355.77 -39.11 355.77 -40.23C355.77 -41.38 355.39 -42.27 354.64 -42.9C353.89 -43.55 352.84 -43.88 351.5 -43.88L339.65 -43.88L343.4 -47.64L343.4 -21L335.06 -21L335.06 -50.38L352.02 -50.38ZM367.88 -21L367.88 -50.38L376.22 -50.38L376.22 -23.74L372.47 -27.39L384.24 -27.39C385.61 -27.39 386.67 -27.73 387.42 -28.4C388.2 -29.08 388.59 -30 388.59 -31.15C388.59 -32.32 388.2 -33.24 387.42 -33.89C386.67 -34.54 385.61 -34.87 384.24 -34.87L371.74 -34.87L371.74 -41.29L384.76 -41.29C387.31 -41.29 389.5 -40.86 391.33 -40C393.18 -39.16 394.59 -37.99 395.56 -36.47C396.55 -34.96 397.05 -33.18 397.05 -31.15C397.05 -29.11 396.55 -27.32 395.56 -25.78C394.59 -24.27 393.18 -23.09 391.33 -22.25C389.5 -21.42 387.31 -21 384.76 -21L367.88 -21ZM399.55 -50.38L407.89 -50.38L407.89 -21L399.55 -21L399.55 -50.38ZM433.99 -35.38L434.68 -36.9C437.02 -36.85 438.94 -36.5 440.44 -35.85C441.97 -35.22 443.12 -34.33 443.87 -33.18C444.62 -32.06 445 -30.75 445 -29.27C445 -27.67 444.62 -26.25 443.87 -25C443.12 -23.77 441.99 -22.79 440.48 -22.06C439 -21.35 437.15 -21 434.92 -21L412.6 -21L414.93 -36.08L412.6 -50.38L434.12 -50.38C436.91 -50.38 439.09 -49.74 440.64 -48.46C442.2 -47.21 442.98 -45.46 442.98 -43.21C442.98 -41.98 442.68 -40.81 442.09 -39.68C441.5 -38.56 440.55 -37.61 439.23 -36.83C437.94 -36.07 436.2 -35.59 433.99 -35.38ZM420.86 -22.88L417.63 -26.68L432.66 -26.68C433.87 -26.68 434.81 -26.97 435.49 -27.54C436.16 -28.12 436.49 -28.91 436.49 -29.93C436.49 -30.95 436.13 -31.76 435.4 -32.36C434.68 -32.99 433.61 -33.3 432.18 -33.3L419.77 -33.3L419.77 -38.86L431.05 -38.86C432.02 -38.86 432.83 -39.14 433.47 -39.68C434.14 -40.26 434.48 -41.03 434.48 -42C434.48 -42.78 434.2 -43.42 433.63 -43.92C433.07 -44.44 432.26 -44.7 431.21 -44.7L417.67 -44.7L420.86 -48.5L422.91 -36.08L420.86 -22.88Z" fill="#FFFFFF" fill-opacity="1.000000" fill-rule="nonzero"/>
		<path id="Все направления" d="M1673.28 -38.53C1672.71 -39.19 1671.84 -39.64 1670.69 -39.87Q1671.9 -40.35 1672.5 -41.24Q1672.52 -41.27 1672.54 -41.3C1672.94 -41.93 1673.14 -42.62 1673.14 -43.37Q1673.14 -44.48 1672.65 -45.29Q1672.64 -45.3 1672.63 -45.32C1672.3 -45.86 1671.81 -46.28 1671.15 -46.57C1670.5 -46.86 1669.72 -47 1668.8 -47L1659.16 -47L1660.34 -39.71L1659.16 -32L1669.16 -32Q1670.75 -32 1671.87 -32.52C1672.62 -32.87 1673.19 -33.35 1673.57 -33.97C1673.95 -34.59 1674.14 -35.3 1674.14 -36.11Q1674.14 -37.07 1673.75 -37.84Q1673.56 -38.21 1673.28 -38.53ZM1669.88 -44.37C1670.28 -44.03 1670.48 -43.57 1670.48 -43.01Q1670.48 -42.29 1670.16 -41.78C1669.95 -41.43 1669.67 -41.17 1669.29 -40.99C1668.93 -40.82 1668.5 -40.73 1668.02 -40.73L1662.72 -40.73L1662.04 -44.89L1668.22 -44.89Q1669.29 -44.89 1669.88 -44.37ZM1687.72 -33.99C1688.32 -34.71 1688.69 -35.54 1688.82 -36.46L1686.2 -36.46C1686.08 -35.93 1685.84 -35.45 1685.48 -35.04C1685.12 -34.63 1684.67 -34.32 1684.12 -34.09C1683.57 -33.87 1682.97 -33.76 1682.3 -33.76C1681.5 -33.76 1680.8 -33.92 1680.2 -34.23C1679.6 -34.55 1679.14 -35 1678.81 -35.58C1678.48 -36.17 1678.32 -36.86 1678.32 -37.66Q1678.32 -38.87 1678.81 -39.74Q1679.05 -40.17 1679.38 -40.5Q1679.73 -40.85 1680.2 -41.09C1680.8 -41.41 1681.5 -41.57 1682.3 -41.57Q1683.3 -41.57 1684.11 -41.24C1684.66 -41.02 1685.11 -40.71 1685.47 -40.3Q1685.63 -40.12 1685.76 -39.91Q1686.07 -39.43 1686.2 -38.85L1688.82 -38.85Q1688.72 -39.58 1688.42 -40.23Q1688.15 -40.82 1687.72 -41.33C1687.13 -42.05 1686.36 -42.61 1685.41 -43.01Q1684 -43.61 1682.3 -43.61Q1680.36 -43.61 1678.86 -42.85C1677.85 -42.35 1677.07 -41.65 1676.52 -40.75Q1676.36 -40.5 1676.23 -40.22Q1675.68 -39.07 1675.68 -37.66Q1675.68 -36.29 1676.21 -35.15Q1676.34 -34.85 1676.52 -34.57C1677.07 -33.67 1677.85 -32.98 1678.86 -32.47Q1680.36 -31.73 1682.3 -31.73Q1684 -31.73 1685.41 -32.32C1686.36 -32.71 1687.13 -33.27 1687.72 -33.99ZM1694.45 -34.55C1693.66 -35.07 1693.15 -35.81 1692.92 -36.75L1702.86 -36.75Q1702.86 -38.8 1702.1 -40.35Q1701.59 -41.39 1700.8 -42.11Q1700.4 -42.47 1699.93 -42.76C1699 -43.32 1697.91 -43.61 1696.66 -43.61C1695.41 -43.61 1694.29 -43.36 1693.3 -42.86C1692.32 -42.36 1691.55 -41.67 1690.99 -40.77C1690.44 -39.87 1690.16 -38.85 1690.16 -37.68C1690.16 -36.52 1690.45 -35.48 1691.03 -34.58C1691.61 -33.68 1692.42 -32.98 1693.45 -32.47C1694.49 -31.98 1695.67 -31.73 1696.98 -31.73C1698.01 -31.73 1699.02 -31.88 1700.01 -32.19Q1701.49 -32.64 1702.54 -33.45L1702.54 -35.33C1701.85 -34.84 1701.05 -34.45 1700.14 -34.18C1699.24 -33.9 1698.35 -33.76 1697.48 -33.76C1696.26 -33.76 1695.25 -34.02 1694.45 -34.55ZM1737.9 -37.66L1738.5 -43.32L1735.82 -43.32L1735.53 -40.53Q1734.8 -41.75 1733.73 -42.51Q1733.53 -42.66 1733.3 -42.8C1732.41 -43.34 1731.41 -43.61 1730.32 -43.61Q1728.93 -43.61 1727.8 -43.07Q1727.59 -42.97 1727.39 -42.86C1726.53 -42.36 1725.86 -41.67 1725.38 -40.76Q1724.66 -39.42 1724.66 -37.66C1724.66 -36.5 1724.9 -35.47 1725.38 -34.56C1725.86 -33.67 1726.53 -32.97 1727.39 -32.47C1728.25 -31.97 1729.23 -31.73 1730.32 -31.73C1731.41 -31.73 1732.4 -32 1733.3 -32.54C1734.2 -33.08 1734.94 -33.84 1735.53 -34.81L1735.82 -32L1738.5 -32L1737.9 -37.66ZM1766.71 -42.86C1765.85 -43.36 1764.87 -43.61 1763.78 -43.61Q1762.71 -43.61 1761.77 -43.26Q1761.22 -43.07 1760.72 -42.76Q1760.51 -42.63 1760.32 -42.48Q1759.22 -41.67 1758.48 -40.37L1758.48 -43.32L1755.88 -43.32L1755.88 -28.7L1758.48 -28.7L1758.48 -34.98Q1759.28 -33.58 1760.47 -32.75Q1760.59 -32.66 1760.72 -32.58C1761.63 -32.01 1762.65 -31.73 1763.78 -31.73C1764.87 -31.73 1765.85 -31.97 1766.71 -32.47C1767.57 -32.97 1768.24 -33.67 1768.72 -34.56C1769.2 -35.47 1769.44 -36.5 1769.44 -37.66C1769.44 -38.83 1769.2 -39.87 1768.72 -40.76C1768.24 -41.67 1767.57 -42.36 1766.71 -42.86ZM1784.24 -37.66L1784.84 -43.32L1782.16 -43.32L1781.87 -40.53Q1781.14 -41.75 1780.07 -42.51Q1779.87 -42.66 1779.64 -42.8C1778.75 -43.34 1777.75 -43.61 1776.66 -43.61Q1775.27 -43.61 1774.14 -43.07Q1773.93 -42.97 1773.73 -42.86C1772.87 -42.36 1772.2 -41.67 1771.72 -40.76Q1771 -39.42 1771 -37.66C1771 -36.5 1771.24 -35.47 1771.72 -34.56C1772.2 -33.67 1772.87 -32.97 1773.73 -32.47C1774.59 -31.97 1775.57 -31.73 1776.66 -31.73C1777.75 -31.73 1778.74 -32 1779.64 -32.54C1780.54 -33.08 1781.28 -33.84 1781.87 -34.81L1782.16 -32L1784.84 -32L1784.24 -37.66ZM1820.95 -34.55C1820.16 -35.07 1819.65 -35.81 1819.42 -36.75L1829.36 -36.75Q1829.36 -38.8 1828.6 -40.35Q1828.09 -41.39 1827.3 -42.11Q1826.9 -42.47 1826.43 -42.76C1825.5 -43.32 1824.41 -43.61 1823.16 -43.61C1821.91 -43.61 1820.79 -43.36 1819.8 -42.86C1818.82 -42.36 1818.05 -41.67 1817.49 -40.77C1816.94 -39.87 1816.66 -38.85 1816.66 -37.68C1816.66 -36.52 1816.95 -35.48 1817.53 -34.58C1818.11 -33.68 1818.92 -32.98 1819.95 -32.47C1820.99 -31.98 1822.17 -31.73 1823.48 -31.73C1824.51 -31.73 1825.52 -31.88 1826.51 -32.19Q1827.99 -32.64 1829.04 -33.45L1829.04 -35.33C1828.35 -34.84 1827.55 -34.45 1826.64 -34.18C1825.74 -33.9 1824.85 -33.76 1823.98 -33.76C1822.76 -33.76 1821.75 -34.02 1820.95 -34.55ZM1719.92 -43.32L1719.92 -38.74L1712.88 -38.74L1712.88 -43.32L1710.3 -43.32L1710.3 -32L1712.88 -32L1712.88 -36.75L1719.92 -36.75L1719.92 -32L1722.5 -32L1722.5 -43.32L1719.92 -43.32ZM1741 -43.32L1741 -32L1743.6 -32L1743.6 -41.33L1750.52 -41.33L1750.52 -32L1753.12 -32L1753.12 -43.32L1741 -43.32ZM1798.83 -36.94C1798.38 -37.42 1797.72 -37.74 1796.85 -37.91C1797.47 -38.15 1797.95 -38.48 1798.28 -38.91C1798.61 -39.35 1798.78 -39.86 1798.78 -40.47C1798.78 -41.05 1798.64 -41.56 1798.36 -41.99C1798.08 -42.42 1797.68 -42.75 1797.15 -42.98C1796.62 -43.21 1796 -43.32 1795.28 -43.32L1787.08 -43.32L1787.66 -37.66L1787.08 -32L1795.54 -32C1796.36 -32 1797.07 -32.13 1797.66 -32.38C1798.25 -32.63 1798.71 -32.99 1799.02 -33.46C1799.34 -33.93 1799.5 -34.48 1799.5 -35.13C1799.5 -35.86 1799.28 -36.47 1798.83 -36.94ZM1814.54 -32L1814.54 -43.32L1803.4 -43.32C1803.6 -41.32 1803.7 -39.64 1803.7 -38.26C1803.7 -37.23 1803.63 -36.4 1803.49 -35.76C1803.34 -35.13 1803.12 -34.66 1802.81 -34.37C1802.51 -34.07 1802.11 -33.92 1801.62 -33.92Q1800.98 -33.92 1800.26 -34.23L1800.26 -32.28C1800.87 -31.95 1801.53 -31.79 1802.26 -31.79C1803.15 -31.79 1803.88 -32 1804.43 -32.42C1804.99 -32.85 1805.4 -33.51 1805.67 -34.41Q1806.06 -35.75 1806.06 -37.9C1806.06 -38.71 1806 -39.85 1805.89 -41.33L1811.94 -41.33L1811.94 -32L1814.54 -32ZM1841.12 -43.32L1841.12 -38.74L1834.08 -38.74L1834.08 -43.32L1831.5 -43.32L1831.5 -32L1834.08 -32L1834.08 -36.75L1841.12 -36.75L1841.12 -32L1843.7 -32L1843.7 -43.32L1841.12 -43.32ZM1855.98 -43.32L1849.02 -34.48L1849.02 -43.32L1846.46 -43.32L1846.46 -32L1849.74 -32L1856.78 -40.95L1856.78 -32L1859.34 -32L1859.34 -43.32L1855.98 -43.32ZM1873.36 -32L1873.36 -43.32L1865.76 -43.32C1864.94 -43.32 1864.21 -43.18 1863.58 -42.88C1862.95 -42.58 1862.46 -42.16 1862.12 -41.62C1861.77 -41.08 1861.6 -40.46 1861.6 -39.76C1861.6 -39.16 1861.73 -38.61 1862 -38.12C1862.27 -37.63 1862.64 -37.23 1863.13 -36.91C1863.62 -36.6 1864.2 -36.39 1864.85 -36.3L1861.36 -32L1864.38 -32L1867.68 -36.17L1870.76 -36.17L1870.76 -32L1873.36 -32ZM1694.84 -41.22C1695.36 -41.45 1695.95 -41.57 1696.6 -41.57Q1697.81 -41.57 1698.67 -41.02Q1698.81 -40.92 1698.94 -40.82C1699.57 -40.32 1699.97 -39.63 1700.16 -38.72L1692.88 -38.72Q1693.02 -39.46 1693.4 -40.02Q1693.48 -40.13 1693.56 -40.23Q1693.75 -40.47 1693.97 -40.67Q1694.36 -41 1694.84 -41.22ZM1821.34 -41.22C1821.86 -41.45 1822.45 -41.57 1823.1 -41.57Q1824.31 -41.57 1825.17 -41.02Q1825.31 -40.92 1825.44 -40.82C1826.07 -40.32 1826.47 -39.63 1826.66 -38.72L1819.38 -38.72Q1819.52 -39.46 1819.9 -40.02Q1819.98 -40.13 1820.06 -40.23Q1820.25 -40.47 1820.47 -40.67Q1820.86 -41 1821.34 -41.22ZM1732.91 -34.29C1732.3 -33.97 1731.64 -33.81 1730.94 -33.81C1730.24 -33.81 1729.61 -33.97 1729.06 -34.29C1728.51 -34.62 1728.07 -35.08 1727.76 -35.66C1727.45 -36.25 1727.3 -36.92 1727.3 -37.66C1727.3 -38.41 1727.45 -39.08 1727.76 -39.66C1728.07 -40.24 1728.51 -40.7 1729.06 -41.03C1729.61 -41.36 1730.24 -41.53 1730.94 -41.53C1731.64 -41.53 1732.3 -41.36 1732.91 -41.03C1733.53 -40.71 1734.08 -40.26 1734.55 -39.68C1735.03 -39.1 1735.41 -38.43 1735.7 -37.66C1735.41 -36.9 1735.03 -36.23 1734.55 -35.64C1734.08 -35.06 1733.53 -34.61 1732.91 -34.29ZM1765.04 -34.29C1764.49 -33.97 1763.86 -33.81 1763.16 -33.81Q1762.62 -33.81 1762.11 -33.94Q1761.63 -34.06 1761.18 -34.29C1760.57 -34.61 1760.02 -35.06 1759.54 -35.64Q1758.83 -36.52 1758.4 -37.66Q1758.83 -38.81 1759.54 -39.68C1760.02 -40.26 1760.57 -40.71 1761.18 -41.03C1761.8 -41.36 1762.46 -41.53 1763.16 -41.53C1763.86 -41.53 1764.49 -41.36 1765.04 -41.03C1765.6 -40.7 1766.03 -40.24 1766.34 -39.66C1766.65 -39.08 1766.8 -38.41 1766.8 -37.66C1766.8 -36.92 1766.65 -36.25 1766.34 -35.66C1766.03 -35.08 1765.6 -34.62 1765.04 -34.29ZM1779.25 -34.29C1778.64 -33.97 1777.98 -33.81 1777.28 -33.81C1776.58 -33.81 1775.95 -33.97 1775.4 -34.29C1774.85 -34.62 1774.41 -35.08 1774.1 -35.66C1773.79 -36.25 1773.64 -36.92 1773.64 -37.66C1773.64 -38.41 1773.79 -39.08 1774.1 -39.66C1774.41 -40.24 1774.85 -40.7 1775.4 -41.03C1775.95 -41.36 1776.58 -41.53 1777.28 -41.53C1777.98 -41.53 1778.64 -41.36 1779.25 -41.03C1779.87 -40.71 1780.42 -40.26 1780.89 -39.68C1781.37 -39.1 1781.75 -38.43 1782.04 -37.66C1781.75 -36.9 1781.37 -36.23 1780.89 -35.64C1780.42 -35.06 1779.87 -34.61 1779.25 -34.29ZM1795.73 -41.14C1796.02 -40.88 1796.16 -40.52 1796.16 -40.07C1796.16 -39.6 1796 -39.24 1795.67 -38.98C1795.35 -38.72 1794.86 -38.59 1794.2 -38.59L1790.06 -38.59L1789.73 -41.53L1794.38 -41.53C1794.99 -41.53 1795.44 -41.4 1795.73 -41.14ZM1870.76 -41.46L1870.76 -37.99L1866.32 -37.99C1865.67 -37.99 1865.16 -38.15 1864.79 -38.46C1864.42 -38.78 1864.24 -39.21 1864.24 -39.74C1864.24 -40.28 1864.42 -40.7 1864.79 -41C1865.16 -41.31 1865.67 -41.46 1866.32 -41.46L1870.76 -41.46ZM1670.79 -34.7C1670.33 -34.31 1669.69 -34.12 1668.86 -34.12L1662.03 -34.12L1662.72 -38.68L1668.28 -38.68Q1669.84 -38.68 1670.66 -38.06C1671.21 -37.65 1671.48 -37.07 1671.48 -36.33Q1671.48 -35.56 1671.12 -35.05Q1670.98 -34.86 1670.79 -34.7ZM1796.4 -34.2C1796.08 -33.94 1795.57 -33.81 1794.88 -33.81L1789.73 -33.81L1790.08 -36.91L1794.58 -36.91C1795.36 -36.91 1795.94 -36.77 1796.31 -36.48C1796.69 -36.2 1796.88 -35.83 1796.88 -35.36C1796.88 -34.85 1796.72 -34.46 1796.4 -34.2Z" fill="#FFFFFF" fill-opacity="1.000000" fill-rule="evenodd"/>
		<rect id="Link" rx="0.000000" width="216.000000" height="29.000000" transform="translate(1658.500000 -51.500000)" stroke="#FFFFFF" stroke-opacity="1.000000" stroke-width="1.000000"/>
	</g>
</svg>
