<svg width="59.000000" height="71.000000" viewBox="0 0 59 71" fill="none" xmlns="http://www.w3.org/2000/svg" xmlns:xlink="http://www.w3.org/1999/xlink">
	<desc>
			Created with Pixso.
	</desc>
	<defs>
		<clipPath id="clip10_152">
			<rect id="фрейм 1" width="59.000000" height="71.000000" fill="white" fill-opacity="0"/>
		</clipPath>
	</defs>
	<g clip-path="url(#clip10_152)">
		<path id="Subtract" d="M-481.998 0L1418 0C1423.52 0 1428 4.47714 1428 10L1428 95C1427.48 81.6565 1416.47 71 1403 71L1144.52 71C1139.46 71 1135.3 67.1688 1133.81 62.3276C1127.54 41.8731 1108.51 27 1086 27L59 27C36.4914 27 17.4567 41.8731 11.1874 62.3276C9.70349 67.1689 5.54449 71 0.480957 71L-467 71C-480.472 71 -491.455 81.6565 -491.98 95L-491.998 10.0021C-491.998 4.47842 -487.522 0 -481.998 0Z" clip-rule="evenodd" fill="#7027E2" fill-opacity="1.000000" fill-rule="evenodd"/>
		<rect id="Logo" width="400.000000" height="30.630630" transform="translate(-447.000000 20.000000)" fill="#FFFFFF" fill-opacity="0"/>
		<path id="Vector" d="M-402.84 20.62L-402.84 50L-410.78 50L-410.78 23.52L-409.01 23.72L-420.69 50L-429.15 50L-440.88 23.79L-439.07 23.6L-439.07 50L-447 50L-447 20.62L-434.11 20.62L-423.27 45.85L-426.49 45.85L-415.73 20.62L-402.84 20.62ZM-389.25 36.88C-389.25 38.21 -388.99 39.37 -388.48 40.36C-387.94 41.33 -387.16 42.07 -386.14 42.6C-385.1 43.12 -383.82 43.38 -382.32 43.38C-380.78 43.38 -379.51 43.12 -378.49 42.6C-377.47 42.07 -376.7 41.33 -376.19 40.36C-375.68 39.37 -375.43 38.21 -375.43 36.88L-375.43 20.62L-367.04 20.62L-367.04 37.27C-367.04 39.96 -367.69 42.31 -368.98 44.32C-370.24 46.3 -372.01 47.86 -374.3 48.98C-376.58 50.08 -379.25 50.63 -382.32 50.63C-385.35 50.63 -388.02 50.08 -390.34 48.98C-392.62 47.86 -394.4 46.3 -395.69 44.32C-396.96 42.31 -397.59 39.96 -397.59 37.27L-397.59 20.62L-389.25 20.62L-389.25 36.88ZM-363.18 40.36L-354.68 40.36C-354.54 41.17 -354.15 41.88 -353.51 42.48C-352.86 43.08 -352 43.55 -350.93 43.89C-349.83 44.2 -348.54 44.36 -347.06 44.36C-345.02 44.36 -343.41 44.11 -342.22 43.61C-341.04 43.09 -340.45 42.33 -340.45 41.34C-340.45 40.59 -340.79 40 -341.46 39.58C-342.13 39.16 -343.42 38.86 -345.33 38.68L-350.97 38.17C-355.13 37.8 -358.15 36.89 -360.03 35.43C-361.92 33.94 -362.86 31.94 -362.86 29.43C-362.86 27.4 -362.25 25.67 -361.04 24.26C-359.81 22.85 -358.09 21.8 -355.88 21.09C-353.66 20.36 -351.06 20 -348.11 20C-345.21 20 -342.63 20.4 -340.37 21.21C-338.11 21.99 -336.33 23.12 -335.01 24.58C-333.67 26.04 -332.94 27.74 -332.83 29.67L-341.3 29.67C-341.41 28.96 -341.75 28.36 -342.34 27.87C-342.91 27.35 -343.69 26.95 -344.68 26.69C-345.68 26.41 -346.87 26.26 -348.27 26.26C-350.15 26.26 -351.64 26.51 -352.74 27.01C-353.84 27.48 -354.39 28.18 -354.39 29.12C-354.39 29.8 -354.07 30.35 -353.43 30.77C-352.75 31.18 -351.56 31.47 -349.84 31.63L-343.84 32.22C-340.96 32.48 -338.66 32.93 -336.95 33.59C-335.23 34.21 -333.98 35.09 -333.2 36.21C-332.42 37.33 -332.03 38.73 -332.03 40.4C-332.03 42.47 -332.66 44.27 -333.92 45.81C-335.19 47.32 -336.96 48.51 -339.24 49.37C-341.53 50.21 -344.19 50.63 -347.22 50.63C-350.34 50.63 -353.09 50.21 -355.48 49.37C-357.85 48.51 -359.7 47.31 -361.04 45.77C-362.39 44.2 -363.1 42.4 -363.18 40.36ZM-327.85 20.62L-319.51 20.62L-319.51 50L-327.85 50L-327.85 20.62ZM-280.31 37.7C-280.61 40.28 -281.52 42.56 -283.05 44.52C-284.58 46.45 -286.6 47.95 -289.1 49.02C-291.57 50.09 -294.41 50.63 -297.64 50.63C-301.16 50.63 -304.23 49.99 -306.87 48.71C-309.5 47.43 -311.55 45.64 -313.03 43.34C-314.48 41.04 -315.21 38.37 -315.21 35.31C-315.21 32.26 -314.48 29.58 -313.03 27.28C-311.55 24.98 -309.5 23.19 -306.87 21.91C-304.23 20.63 -301.16 20 -297.64 20C-294.41 20 -291.57 20.53 -289.1 21.6C-286.6 22.67 -284.58 24.19 -283.05 26.14C-281.52 28.08 -280.61 30.34 -280.31 32.92L-288.69 32.92C-288.96 31.67 -289.49 30.61 -290.26 29.75C-291.04 28.86 -292.06 28.18 -293.33 27.71C-294.56 27.24 -296 27.01 -297.64 27.01C-299.52 27.01 -301.15 27.35 -302.51 28.02C-303.88 28.68 -304.93 29.63 -305.66 30.88C-306.38 32.11 -306.75 33.59 -306.75 35.31C-306.75 37.03 -306.38 38.52 -305.66 39.78C-304.93 41 -303.88 41.96 -302.51 42.64C-301.15 43.29 -299.52 43.61 -297.64 43.61C-296 43.61 -294.56 43.39 -293.33 42.95C-292.06 42.5 -291.04 41.84 -290.26 40.95C-289.49 40.06 -288.96 38.98 -288.69 37.7L-280.31 37.7ZM-234.27 20.62L-234.27 50L-242.61 50L-242.61 24.15L-238.86 27.83L-261.67 27.83L-257.92 24.15L-257.92 50L-266.26 50L-266.26 20.62L-234.27 20.62ZM-211.68 20.62C-209.15 20.62 -206.98 21.04 -205.15 21.88C-203.3 22.71 -201.89 23.9 -200.92 25.44C-199.95 26.95 -199.47 28.73 -199.47 30.77C-199.47 32.78 -199.95 34.55 -200.92 36.09C-201.89 37.61 -203.3 38.78 -205.15 39.62C-206.98 40.45 -209.15 40.87 -211.68 40.87L-224.77 40.87L-224.77 34.37L-212.2 34.37C-210.86 34.37 -209.81 34.06 -209.06 33.43C-208.31 32.78 -207.93 31.89 -207.93 30.77C-207.93 29.62 -208.31 28.73 -209.06 28.1C-209.81 27.45 -210.86 27.12 -212.2 27.12L-224.05 27.12L-220.3 23.36L-220.3 50L-228.64 50L-228.64 20.62L-211.68 20.62ZM-179.22 50.63C-182.79 50.63 -185.94 49.99 -188.65 48.71C-191.34 47.43 -193.43 45.64 -194.94 43.34C-196.41 41.04 -197.15 38.37 -197.15 35.31C-197.15 32.26 -196.41 29.58 -194.94 27.28C-193.43 24.98 -191.34 23.19 -188.65 21.91C-185.94 20.63 -182.79 20 -179.22 20C-175.62 20 -172.48 20.63 -169.79 21.91C-167.1 23.19 -165.01 24.98 -163.5 27.28C-162 29.58 -161.25 32.26 -161.25 35.31C-161.25 38.37 -162 41.04 -163.5 43.34C-165.01 45.64 -167.1 47.43 -169.79 48.71C-172.48 49.99 -175.62 50.63 -179.22 50.63ZM-179.22 43.38C-177.26 43.38 -175.57 43.05 -174.14 42.4C-172.72 41.75 -171.63 40.82 -170.88 39.62C-170.1 38.42 -169.71 36.98 -169.71 35.31C-169.71 33.64 -170.1 32.2 -170.88 31C-171.63 29.8 -172.72 28.87 -174.14 28.22C-175.57 27.57 -177.26 27.24 -179.22 27.24C-181.15 27.24 -182.83 27.57 -184.26 28.22C-185.68 28.87 -186.78 29.8 -187.56 31C-188.34 32.2 -188.73 33.64 -188.73 35.31C-188.73 36.98 -188.34 38.42 -187.56 39.62C-186.78 40.82 -185.68 41.75 -184.26 42.4C-182.83 43.05 -181.15 43.38 -179.22 43.38ZM-139.98 20.62C-137.45 20.62 -135.28 21.04 -133.45 21.88C-131.6 22.71 -130.19 23.9 -129.22 25.44C-128.25 26.95 -127.77 28.73 -127.77 30.77C-127.77 32.78 -128.25 34.55 -129.22 36.09C-130.19 37.61 -131.6 38.78 -133.45 39.62C-135.28 40.45 -137.45 40.87 -139.98 40.87L-153.08 40.87L-153.08 34.37L-140.5 34.37C-139.16 34.37 -138.11 34.06 -137.36 33.43C-136.61 32.78 -136.23 31.89 -136.23 30.77C-136.23 29.62 -136.61 28.73 -137.36 28.1C-138.11 27.45 -139.16 27.12 -140.5 27.12L-152.35 27.12L-148.6 23.36L-148.6 50L-156.94 50L-156.94 20.62L-139.98 20.62ZM-124.12 50L-124.12 20.62L-115.78 20.62L-115.78 47.26L-119.53 43.61L-107.76 43.61C-106.39 43.61 -105.33 43.27 -104.58 42.6C-103.8 41.92 -103.41 41 -103.41 39.85C-103.41 38.68 -103.8 37.76 -104.58 37.11C-105.33 36.46 -106.39 36.13 -107.76 36.13L-120.26 36.13L-120.26 29.71L-107.24 29.71C-104.69 29.71 -102.5 30.14 -100.67 31C-98.82 31.84 -97.41 33.01 -96.44 34.53C-95.45 36.04 -94.95 37.82 -94.95 39.85C-94.95 41.89 -95.45 43.68 -96.44 45.22C-97.41 46.73 -98.82 47.91 -100.67 48.75C-102.5 49.58 -104.69 50 -107.24 50L-124.12 50ZM-92.45 20.62L-84.11 20.62L-84.11 50L-92.45 50L-92.45 20.62ZM-58.01 35.62L-57.32 34.1C-54.98 34.15 -53.06 34.5 -51.56 35.15C-50.03 35.78 -48.89 36.67 -48.13 37.82C-47.38 38.94 -47 40.25 -47 41.73C-47 43.33 -47.38 44.75 -48.13 46C-48.89 47.23 -50.01 48.21 -51.52 48.94C-53 49.65 -54.85 50 -57.08 50L-79.4 50L-77.07 34.92L-79.4 20.62L-57.88 20.62C-55.09 20.62 -52.91 21.26 -51.36 22.54C-49.8 23.79 -49.02 25.54 -49.02 27.79C-49.02 29.02 -49.32 30.19 -49.91 31.32C-50.5 32.44 -51.45 33.39 -52.77 34.17C-54.06 34.93 -55.8 35.41 -58.01 35.62ZM-71.14 48.12L-74.37 44.32L-59.34 44.32C-58.13 44.32 -57.19 44.03 -56.51 43.46C-55.84 42.88 -55.51 42.09 -55.51 41.07C-55.51 40.05 -55.87 39.24 -56.6 38.64C-57.32 38.01 -58.4 37.7 -59.82 37.7L-72.23 37.7L-72.23 32.14L-60.95 32.14C-59.98 32.14 -59.17 31.86 -58.53 31.32C-57.86 30.74 -57.52 29.97 -57.52 29C-57.52 28.22 -57.8 27.58 -58.37 27.08C-58.93 26.56 -59.74 26.3 -60.79 26.3L-74.33 26.3L-71.14 22.5L-69.09 34.92L-71.14 48.12Z" fill="#FFFFFF" fill-opacity="1.000000" fill-rule="nonzero"/>
		<path id="Все направления" d="M1181.28 32.47Q1180.42 31.48 1178.68 31.13Q1179.9 30.65 1180.5 29.76Q1180.52 29.73 1180.54 29.7Q1180.82 29.24 1180.98 28.74Q1181.14 28.21 1181.14 27.63Q1181.14 26.52 1180.65 25.71Q1180.64 25.7 1180.63 25.68Q1180.53 25.51 1180.4 25.36Q1179.93 24.77 1179.15 24.43Q1178.18 24 1176.8 24L1167.16 24L1168.34 31.29L1167.16 39L1177.16 39Q1178.75 39 1179.87 38.48Q1180.88 38.01 1181.43 37.23Q1181.51 37.13 1181.56 37.03Q1181.66 36.89 1181.73 36.73Q1182.14 35.91 1182.14 34.89Q1182.14 33.93 1181.75 33.16Q1181.56 32.79 1181.28 32.47ZM1178.26 27.08Q1178.48 27.47 1178.48 27.99Q1178.48 28.71 1178.16 29.22Q1178.03 29.43 1177.87 29.6Q1177.62 29.85 1177.29 30.01Q1176.74 30.27 1176.02 30.27L1170.72 30.27L1170.04 26.11L1176.22 26.11Q1177.29 26.11 1177.88 26.63Q1178.12 26.83 1178.26 27.08ZM1196.47 35.81Q1196.73 35.21 1196.81 34.54L1194.19 34.54Q1194.1 34.96 1193.91 35.34Q1193.73 35.67 1193.48 35.96Q1193.4 36.04 1193.31 36.12Q1192.82 36.62 1192.12 36.91Q1191.3 37.24 1190.3 37.24Q1189.1 37.24 1188.19 36.77Q1187.73 36.52 1187.37 36.16Q1187.04 35.83 1186.81 35.42Q1186.31 34.54 1186.31 33.34Q1186.31 32.13 1186.81 31.26Q1187.05 30.83 1187.38 30.5Q1187.73 30.15 1188.19 29.91Q1189.1 29.43 1190.3 29.43Q1191.3 29.43 1192.11 29.76Q1192.78 30.02 1193.26 30.48Q1193.37 30.58 1193.47 30.7Q1193.63 30.88 1193.76 31.09Q1194.06 31.57 1194.19 32.15L1196.81 32.15Q1196.72 31.42 1196.42 30.77Q1196.15 30.18 1195.72 29.67Q1195.64 29.57 1195.54 29.47Q1194.68 28.54 1193.41 27.99Q1192 27.39 1190.3 27.39Q1188.36 27.39 1186.86 28.15Q1185.81 28.67 1185.09 29.48Q1184.77 29.83 1184.52 30.25Q1184.36 30.5 1184.23 30.78Q1183.68 31.93 1183.68 33.34Q1183.68 34.71 1184.21 35.85Q1184.34 36.15 1184.52 36.43Q1184.77 36.84 1185.09 37.19Q1185.81 38 1186.86 38.53Q1188.36 39.27 1190.3 39.27Q1192 39.27 1193.41 38.68Q1194.68 38.15 1195.52 37.24Q1195.63 37.12 1195.72 37.01Q1196.18 36.45 1196.47 35.81ZM1201.51 35.56Q1201.1 34.99 1200.92 34.25L1210.86 34.25Q1210.86 32.2 1210.1 30.65Q1209.59 29.61 1208.8 28.89Q1208.4 28.53 1207.93 28.24Q1207.84 28.18 1207.74 28.13Q1206.4 27.39 1204.66 27.39Q1202.78 27.39 1201.3 28.14Q1200.34 28.62 1199.66 29.36Q1199.28 29.76 1198.99 30.23Q1198.84 30.47 1198.72 30.72Q1198.16 31.88 1198.16 33.32Q1198.16 34.63 1198.65 35.72Q1198.81 36.09 1199.03 36.42Q1199.26 36.78 1199.54 37.09Q1200.31 37.97 1201.44 38.53Q1203.01 39.27 1204.98 39.27Q1205.63 39.27 1206.27 39.19Q1207.15 39.08 1208.01 38.81Q1209.49 38.36 1210.54 37.55L1210.54 35.67Q1209.5 36.41 1208.14 36.82Q1206.79 37.24 1205.48 37.24Q1203.65 37.24 1202.44 36.45Q1201.89 36.08 1201.51 35.56ZM1245.9 33.34L1246.5 27.68L1243.81 27.68L1243.53 30.47Q1242.8 29.25 1241.73 28.49Q1241.53 28.34 1241.3 28.2Q1240.84 27.92 1240.34 27.74Q1239.4 27.39 1238.31 27.39Q1236.93 27.39 1235.8 27.93Q1235.59 28.03 1235.39 28.14Q1234.88 28.44 1234.44 28.83Q1233.81 29.42 1233.38 30.24Q1232.66 31.58 1232.66 33.34Q1232.66 35.08 1233.38 36.44Q1233.8 37.23 1234.42 37.81Q1234.86 38.22 1235.39 38.53Q1235.57 38.64 1235.77 38.73Q1236.92 39.27 1238.31 39.27Q1239.34 39.27 1240.25 38.96Q1240.8 38.77 1241.3 38.46Q1241.54 38.32 1241.77 38.15Q1242.81 37.38 1243.53 36.19L1243.81 39L1246.5 39L1245.9 33.34ZM1274.27 27.92Q1273.15 27.39 1271.78 27.39Q1270.71 27.39 1269.77 27.74Q1269.22 27.93 1268.72 28.24Q1268.51 28.37 1268.31 28.52Q1267.22 29.33 1266.48 30.63L1266.48 27.68L1263.88 27.68L1263.88 42.3L1266.48 42.3L1266.48 36.02Q1267.28 37.42 1268.47 38.25Q1268.59 38.34 1268.72 38.42Q1269.18 38.71 1269.68 38.9Q1270.66 39.27 1271.78 39.27Q1273.16 39.27 1274.3 38.74Q1274.51 38.65 1274.71 38.53Q1275.26 38.21 1275.71 37.78Q1276.31 37.21 1276.72 36.44Q1277.43 35.08 1277.43 33.34Q1277.43 31.58 1276.72 30.24Q1276.3 29.44 1275.68 28.86Q1275.24 28.45 1274.71 28.14Q1274.5 28.02 1274.27 27.92ZM1292.24 33.34L1292.84 27.68L1290.16 27.68L1289.87 30.47Q1289.14 29.25 1288.06 28.49Q1287.87 28.34 1287.64 28.2Q1287.18 27.92 1286.68 27.74Q1285.74 27.39 1284.66 27.39Q1283.27 27.39 1282.14 27.93Q1281.93 28.03 1281.73 28.14Q1281.22 28.44 1280.79 28.83Q1280.15 29.42 1279.72 30.24Q1279 31.58 1279 33.34Q1279 35.08 1279.72 36.44Q1280.14 37.23 1280.76 37.81Q1281.19 38.22 1281.73 38.53Q1281.92 38.64 1282.11 38.73Q1283.26 39.27 1284.66 39.27Q1285.68 39.27 1286.59 38.96Q1287.14 38.77 1287.64 38.46Q1287.88 38.32 1288.11 38.15Q1289.15 37.38 1289.87 36.19L1290.16 39L1292.84 39L1292.24 33.34ZM1328.01 35.56Q1327.6 34.99 1327.42 34.25L1337.36 34.25Q1337.36 32.2 1336.6 30.65Q1336.09 29.61 1335.3 28.89Q1334.9 28.53 1334.43 28.24Q1334.34 28.18 1334.24 28.13Q1332.9 27.39 1331.16 27.39Q1329.28 27.39 1327.8 28.14Q1326.84 28.62 1326.16 29.36Q1325.78 29.76 1325.49 30.23Q1325.34 30.47 1325.22 30.72Q1324.66 31.88 1324.66 33.32Q1324.66 34.63 1325.15 35.72Q1325.32 36.09 1325.53 36.42Q1325.76 36.78 1326.04 37.09Q1326.81 37.97 1327.95 38.53Q1329.51 39.27 1331.48 39.27Q1332.13 39.27 1332.77 39.19Q1333.65 39.08 1334.51 38.81Q1335.99 38.36 1337.04 37.55L1337.04 35.67Q1336 36.41 1334.64 36.82Q1333.29 37.24 1331.98 37.24Q1330.15 37.24 1328.95 36.45Q1328.39 36.08 1328.01 35.56ZM1227.92 27.68L1227.92 32.26L1220.88 32.26L1220.88 27.68L1218.3 27.68L1218.3 39L1220.88 39L1220.88 34.25L1227.92 34.25L1227.92 39L1230.5 39L1230.5 27.68L1227.92 27.68ZM1249 27.68L1249 39L1251.6 39L1251.6 29.67L1258.52 29.67L1258.52 39L1261.12 39L1261.12 27.68L1249 27.68ZM1306.82 34.06Q1306.15 33.35 1304.85 33.09Q1305.78 32.74 1306.28 32.09Q1306.42 31.91 1306.52 31.71Q1306.78 31.19 1306.78 30.53Q1306.78 29.75 1306.44 29.15Q1306.41 29.08 1306.36 29.01Q1306.29 28.9 1306.21 28.8Q1305.81 28.31 1305.15 28.02Q1304.36 27.68 1303.28 27.68L1295.07 27.68L1295.66 33.34L1295.07 39L1303.54 39Q1304.77 39 1305.66 38.62Q1306.43 38.29 1306.9 37.7Q1306.96 37.62 1307.02 37.54Q1307.1 37.43 1307.16 37.31Q1307.5 36.68 1307.5 35.87Q1307.5 35.07 1307.15 34.48Q1307.01 34.25 1306.82 34.06ZM1322.54 39L1322.54 27.68L1311.4 27.68Q1311.7 30.67 1311.7 32.74Q1311.7 34.28 1311.49 35.24Q1311.27 36.19 1310.81 36.63Q1310.69 36.74 1310.56 36.82Q1310.18 37.08 1309.62 37.08Q1308.98 37.08 1308.26 36.77L1308.26 38.72Q1308.52 38.86 1308.79 38.96Q1309.48 39.21 1310.26 39.21Q1311.6 39.21 1312.43 38.58Q1313.27 37.94 1313.67 36.59Q1314.06 35.25 1314.06 33.1Q1314.06 31.89 1313.89 29.67L1319.94 29.67L1319.94 39L1322.54 39ZM1349.12 27.68L1349.12 32.26L1342.08 32.26L1342.08 27.68L1339.5 27.68L1339.5 39L1342.08 39L1342.08 34.25L1349.12 34.25L1349.12 39L1351.7 39L1351.7 27.68L1349.12 27.68ZM1363.98 27.68L1357.02 36.52L1357.02 27.68L1354.46 27.68L1354.46 39L1357.74 39L1364.78 30.05L1364.78 39L1367.34 39L1367.34 27.68L1363.98 27.68ZM1381.36 39L1381.36 27.68L1373.76 27.68Q1372.53 27.68 1371.58 28.12Q1370.87 28.45 1370.4 28.99Q1370.25 29.17 1370.12 29.38Q1370 29.56 1369.91 29.76Q1369.6 30.43 1369.6 31.24Q1369.6 31.98 1369.87 32.61Q1369.93 32.75 1370 32.88Q1370.13 33.12 1370.29 33.32Q1370.63 33.77 1371.13 34.09Q1371.87 34.56 1372.85 34.7L1369.36 39L1372.38 39L1375.68 34.83L1378.76 34.83L1378.76 39L1381.36 39ZM1202.84 29.78Q1203.62 29.43 1204.6 29.43Q1205.81 29.43 1206.67 29.98Q1206.81 30.08 1206.93 30.18Q1207.13 30.33 1207.29 30.5Q1207.93 31.19 1208.16 32.28L1200.88 32.28Q1201.02 31.54 1201.4 30.98Q1201.48 30.87 1201.56 30.77Q1201.75 30.53 1201.97 30.33Q1202.36 30 1202.84 29.78ZM1329.34 29.78Q1330.12 29.43 1331.1 29.43Q1332.31 29.43 1333.17 29.98Q1333.31 30.08 1333.44 30.18Q1333.63 30.33 1333.79 30.5Q1334.44 31.19 1334.66 32.28L1327.38 32.28Q1327.52 31.54 1327.9 30.98Q1327.98 30.87 1328.06 30.77Q1328.25 30.53 1328.47 30.33Q1328.86 30 1329.34 29.78ZM1240.02 37.06Q1239.5 37.19 1238.93 37.19Q1238.1 37.19 1237.39 36.88Q1237.22 36.8 1237.06 36.71Q1236.74 36.52 1236.47 36.27Q1236.05 35.88 1235.76 35.34Q1235.75 35.31 1235.73 35.29Q1235.3 34.42 1235.3 33.34Q1235.3 32.21 1235.76 31.34Q1236.04 30.82 1236.44 30.44Q1236.72 30.17 1237.06 29.97Q1237.24 29.86 1237.43 29.78Q1238.12 29.47 1238.93 29.47Q1239.48 29.47 1239.99 29.6Q1240.46 29.73 1240.91 29.97Q1240.98 30 1241.04 30.04Q1241.89 30.52 1242.55 31.32Q1243.27 32.19 1243.69 33.34Q1243.27 34.48 1242.55 35.36Q1241.89 36.17 1241.03 36.64Q1240.97 36.68 1240.91 36.71Q1240.48 36.94 1240.02 37.06ZM1272.71 36.88Q1272.01 37.19 1271.16 37.19Q1270.62 37.19 1270.11 37.06Q1269.63 36.94 1269.18 36.71Q1269.17 36.7 1269.16 36.7Q1268.25 36.21 1267.54 35.36Q1266.82 34.48 1266.4 33.34Q1266.82 32.19 1267.54 31.32Q1268.25 30.47 1269.15 29.98Q1269.17 29.98 1269.18 29.97Q1269.65 29.72 1270.15 29.6Q1270.64 29.47 1271.16 29.47Q1271.98 29.47 1272.66 29.78Q1272.86 29.86 1273.04 29.97Q1273.39 30.18 1273.67 30.45Q1274.06 30.83 1274.34 31.34Q1274.8 32.21 1274.8 33.34Q1274.8 34.42 1274.36 35.29Q1274.35 35.31 1274.34 35.34Q1274.06 35.87 1273.64 36.26Q1273.37 36.51 1273.04 36.71Q1272.88 36.8 1272.71 36.88ZM1286.36 37.06Q1285.84 37.19 1285.28 37.19Q1284.43 37.19 1283.73 36.88Q1283.56 36.8 1283.4 36.71Q1283.07 36.52 1282.81 36.27Q1282.39 35.88 1282.1 35.34Q1282.09 35.31 1282.06 35.29Q1281.64 34.42 1281.64 33.34Q1281.64 32.21 1282.1 31.34Q1282.38 30.82 1282.79 30.44Q1283.06 30.17 1283.4 29.97Q1283.57 29.86 1283.78 29.78Q1284.46 29.47 1285.28 29.47Q1285.81 29.47 1286.32 29.6Q1286.8 29.73 1287.25 29.97Q1287.31 30 1287.38 30.04Q1288.23 30.52 1288.89 31.32Q1289.61 32.19 1290.04 33.34Q1289.61 34.48 1288.89 35.36Q1288.23 36.17 1287.37 36.64Q1287.31 36.68 1287.25 36.71Q1286.81 36.94 1286.36 37.06ZM1303.93 30.1Q1304.16 30.44 1304.16 30.93Q1304.16 31.37 1303.97 31.69Q1303.85 31.88 1303.67 32.02Q1303.18 32.41 1302.19 32.41L1298.06 32.41L1297.73 29.47L1302.38 29.47Q1303.3 29.47 1303.73 29.86Q1303.85 29.97 1303.93 30.1ZM1378.76 29.54L1378.76 33.01L1374.32 33.01Q1373.35 33.01 1372.79 32.54Q1372.59 32.36 1372.46 32.14Q1372.24 31.76 1372.24 31.26Q1372.24 30.74 1372.47 30.36Q1372.6 30.16 1372.79 30Q1373.35 29.54 1374.32 29.54L1378.76 29.54ZM1178.79 36.3Q1178.1 36.88 1176.86 36.88L1170.03 36.88L1170.72 32.32L1176.28 32.32Q1177.84 32.32 1178.66 32.94Q1178.99 33.18 1179.18 33.5Q1179.48 34 1179.48 34.67Q1179.48 35.44 1179.12 35.95Q1178.98 36.14 1178.79 36.3ZM1304.4 36.8Q1303.92 37.19 1302.88 37.19L1297.73 37.19L1298.07 34.09L1302.57 34.09Q1303.75 34.09 1304.31 34.52Q1304.6 34.73 1304.74 35.02Q1304.88 35.29 1304.88 35.64Q1304.88 36.24 1304.57 36.61Q1304.5 36.72 1304.4 36.8Z" fill="#FFFFFF" fill-opacity="1.000000" fill-rule="evenodd"/>
		<rect id="Link" rx="0.000000" width="216.000000" height="29.000000" transform="translate(1166.500000 19.500000)" stroke="#FFFFFF" stroke-opacity="1.000000" stroke-width="1.000000"/>
	</g>
</svg>
