<svg width="32.000000" height="32.000000" viewBox="0 0 32 32" fill="none" xmlns="http://www.w3.org/2000/svg" xmlns:xlink="http://www.w3.org/1999/xlink">
	<desc>
			Created with Pixso.
	</desc>
	<defs>
		<clipPath id="clip78_108">
			<rect id="Location" rx="0.000000" width="31.000000" height="31.000000" transform="translate(0.500000 0.500000)" fill="white" fill-opacity="0"/>
		</clipPath>
	</defs>
	<rect id="Location" rx="0.000000" width="31.000000" height="31.000000" transform="translate(0.500000 0.500000)" fill="#FFFFFF" fill-opacity="0"/>
	<g clip-path="url(#clip78_108)">
		<path id="Vector" d="M16 24L16.01 24M12.22 20.22C13.22 19.22 14.58 18.66 16 18.66C17.41 18.66 18.77 19.22 19.77 20.22M13.6 13.6L8.45 16.45C9.87 15.03 11.65 14.05 13.6 13.6ZM19.16 13.81C20.81 14.32 22.32 15.24 23.54 16.47M9.41 9.41L4.68 12.68C6.05 11.31 7.65 10.21 9.41 9.41ZM13.54 8.18C16.03 7.8 18.57 8 20.96 8.78C23.36 9.57 25.53 10.9 27.31 12.68M4 4L28 28" stroke="#FFFFFF" stroke-opacity="1.000000" stroke-width="2.000000" stroke-linejoin="round" stroke-linecap="round"/>
	</g>
</svg>
