<svg width="32.000000" height="32.000000" viewBox="0 0 32 32" fill="none" xmlns="http://www.w3.org/2000/svg" xmlns:xlink="http://www.w3.org/1999/xlink">
	<desc>
			Created with Pixso.
	</desc>
	<defs>
		<clipPath id="clip78_117">
			<rect rx="0.000000" width="31.000000" height="31.000000" transform="translate(0.500000 0.500000)" fill="white" fill-opacity="0"/>
		</clipPath>
	</defs>
	<rect rx="0.000000" width="31.000000" height="31.000000" transform="translate(0.500000 0.500000)" fill="#FFFFFF" fill-opacity="0"/>
	<g clip-path="url(#clip78_117)">
		<path d="M4 20L4 13.39C4 12.4 4 11.91 4.15 11.47C4.29 11.09 4.51 10.74 4.8 10.46C5.13 10.14 5.58 9.93 6.47 9.52L18.3 4.06C19.31 3.59 19.81 3.36 20.22 3.43C20.57 3.49 20.89 3.69 21.09 3.99C21.33 4.33 21.33 4.89 21.33 6L21.33 10.66M28 23.73C28 25.22 28 25.97 27.7 26.54C27.45 27.04 27.04 27.45 26.54 27.7C25.97 28 25.22 28 23.73 28L8.26 28C6.77 28 6.02 28 5.45 27.7C4.95 27.45 4.54 27.04 4.29 26.54C4 25.97 4 25.22 4 23.73L4 14.93C4 13.43 4 12.69 4.29 12.12C4.54 11.62 4.95 11.21 5.45 10.95C6.02 10.66 6.77 10.66 8.26 10.66L23.73 10.66C25.22 10.66 25.97 10.66 26.54 10.95C27.04 11.21 27.45 11.62 27.7 12.12C28 12.69 28 13.43 28 14.93L28 23.73ZM22 19.33L22.01 19.33M22 20C21.63 20 21.33 19.7 21.33 19.33C21.33 18.96 21.63 18.66 22 18.66C22.36 18.66 22.66 18.96 22.66 19.33C22.66 19.7 22.36 20 22 20Z" stroke="#FFFFFF" stroke-opacity="1.000000" stroke-width="2.000000" stroke-linejoin="round" stroke-linecap="round"/>
	</g>
</svg>
